<?xml version="1.0" encoding="UTF-8" standalone="no"?>
<!-- Uploaded to: SVG Repo, www.svgrepo.com, Generator: SVG Repo Mixer Tools -->

<svg
   width="800px"
   height="800px"
   viewBox="0 0 24 24"
   fill="none"
   version="1.1"
   id="svg2"
   sodipodi:docname="lock-keyhole.svg"
   inkscape:version="1.4 (e7c3feb100, 2024-10-09)"
   xmlns:inkscape="http://www.inkscape.org/namespaces/inkscape"
   xmlns:sodipodi="http://sodipodi.sourceforge.net/DTD/sodipodi-0.dtd"
   xmlns="http://www.w3.org/2000/svg"
   xmlns:svg="http://www.w3.org/2000/svg">
  <defs
     id="defs2" />
  <sodipodi:namedview
     id="namedview2"
     pagecolor="#ffffff"
     bordercolor="#000000"
     borderopacity="0.25"
     inkscape:showpageshadow="2"
     inkscape:pageopacity="0.0"
     inkscape:pagecheckerboard="0"
     inkscape:deskcolor="#d1d1d1"
     inkscape:zoom="1.02125"
     inkscape:cx="400"
     inkscape:cy="400.4896"
     inkscape:window-width="1920"
     inkscape:window-height="1021"
     inkscape:window-x="1920"
     inkscape:window-y="0"
     inkscape:window-maximized="1"
     inkscape:current-layer="svg2" />
  <circle
     cx="12"
     cy="16"
     r="2"
     stroke="#1C274C"
     stroke-width="1.5"
     id="circle1" />
  <path
     d="M6 10V8C6 7.65929 6.0284 7.32521 6.08296 7M18 10V8C18 4.68629 15.3137 2 12 2C10.208 2 8.59942 2.78563 7.5 4.03126"
     stroke="#1C274C"
     stroke-width="1.5"
     stroke-linecap="round"
     id="path1" />
  <path
     d="M11 22H8C5.17157 22 3.75736 22 2.87868 21.1213C2 20.2426 2 18.8284 2 16C2 13.1716 2 11.7574 2.87868 10.8787C3.75736 10 5.17157 10 8 10H16C18.8284 10 20.2426 10 21.1213 10.8787C22 11.7574 22 13.1716 22 16C22 18.8284 22 20.2426 21.1213 21.1213C20.2426 22 18.8284 22 16 22H15"
     stroke="#1C274C"
     stroke-width="1.5"
     stroke-linecap="round"
     id="path2" />
  <path
     style="fill:#ffffff;stroke-width:0.979192"
     d="M 188.49449,756.84335 C 133.65972,754.21589 103.74309,744.86201 80.881926,723.19667 63.373385,706.60397 52.688833,684.76529 47.555697,655.07956 43.363714,630.83667 43.084455,623.22263 43.084455,533.17013 c 0,-89.84774 0.292567,-97.89664 4.414635,-121.45231 9.541492,-54.52512 39.276799,-85.90409 91.30639,-96.35348 7.92746,-1.59212 32.52155,-4.96042 36.21912,-4.96042 0.40721,0 0.74039,-13.41685 0.74039,-29.81521 0,-53.61726 3.52102,-65.72865 20.56304,-70.73145 9.63984,-2.82983 20.16886,0.98263 26.37522,9.55025 4.29541,5.92964 5.0845,11.27611 3.45849,23.43289 -0.89701,6.70642 -1.38588,19.89819 -1.40612,37.94295 l -0.031,27.66218 H 400 575.2754 V 281.5679 c 0,-43.86023 -4.01914,-64.36296 -18.22851,-92.98869 -35.52348,-71.56448 -115.68296,-110.255599 -193.7666,-93.526625 -33.62738,7.204475 -63.59154,23.779625 -88.92512,49.190335 -11.8176,11.85359 -15.99928,14.33703 -24.17157,14.35514 -10.20286,0.0226 -19.31972,-6.3238 -23.02615,-16.02893 -2.05604,-5.38369 -1.6016,-14.13186 1.00137,-19.27694 2.47585,-4.89378 24.96034,-26.862514 35.73347,-34.913795 31.36267,-23.438854 62.76844,-36.904928 101.40377,-43.479614 17.00525,-2.893833 49.1824,-3.142129 66.03809,-0.509585 56.86416,8.881116 105.26136,35.944773 141.16901,78.941534 27.78326,33.26841 45.97688,76.2286 50.69927,119.71514 0.56792,5.22968 1.03258,22.52467 1.03258,38.43329 0,15.90861 0.33318,28.92476 0.74039,28.92476 3.69757,0 28.29166,3.3683 36.21912,4.96042 48.15734,9.6717 77.89644,37.98046 88.87168,84.59732 6.57849,27.94182 7.61998,49.40213 7.05876,145.44838 -0.48524,83.04425 -0.84409,90.54546 -5.45724,114.07588 -8.69382,44.34485 -31.97291,72.795 -70.75658,86.47397 -26.30354,9.27724 -63.39561,12.31942 -143.33464,11.75588 -42.90857,-0.30248 -44.16666,-0.36581 -47.99325,-2.41537 -8.98825,-4.81422 -13.61983,-12.25085 -13.63041,-21.88547 -0.008,-7.33984 1.98571,-12.2674 6.98726,-17.26895 7.05661,-7.0566 3.20375,-6.64252 68.34509,-7.34537 32.31334,-0.34865 64.70012,-1.1308 71.97062,-1.73811 64.44322,-5.38298 79.68257,-21.79459 84.16974,-90.64432 1.3236,-20.30904 1.3236,-146.18705 0,-166.49609 -2.41622,-37.0737 -7.46095,-55.19847 -18.83452,-67.66897 -13.32599,-14.61121 -29.64526,-19.90027 -71.21037,-23.07922 -23.28875,-1.78116 -411.47257,-1.78116 -434.76132,0 -41.56511,3.17895 -57.88438,8.46801 -71.21037,23.07922 -11.37358,12.4705 -16.418302,30.59527 -18.834517,67.66897 -1.297099,19.90231 -1.317969,148.14195 -0.02717,166.96897 2.619993,38.21415 8.229627,57.17741 20.562137,69.50993 11.93949,11.93949 29.48657,17.68908 63.14517,20.69054 7.84535,0.69961 48.2335,1.36498 105.26316,1.73417 l 92.53366,0.59902 4.69244,2.75825 c 17.07895,10.03911 16.03686,34.45115 -1.84946,43.32573 -3.68597,1.82886 -6.82309,1.90022 -88.0327,2.00262 -46.31579,0.0584 -91.48103,-0.24218 -100.3672,-0.66797 z"
     id="path3"
     transform="scale(0.03)" />
  <path
     style="fill:#ffffff;stroke-width:0.979192"
     d="m 388.06752,623.73613 c -26.63994,-4.22888 -49.6631,-18.63964 -63.83348,-39.95494 -5.45204,-8.20103 -8.61697,-15.1437 -12.07373,-26.48516 -2.30537,-7.56382 -2.57987,-10.0647 -2.59438,-23.6363 -0.0188,-17.57504 1.58622,-25.19931 8.23056,-39.09755 5.20982,-10.89761 10.85529,-18.65008 19.69826,-27.05004 17.54655,-16.6675 38.2412,-24.91728 62.50525,-24.91728 24.46878,0 45.41653,8.41665 62.95713,25.29572 8.46603,8.14674 14.16742,16.04772 19.24639,26.6716 6.64432,13.89824 8.24934,21.52251 8.23055,39.09755 -0.0146,13.66606 -0.28097,16.05508 -2.67484,23.99021 -11.78666,39.07003 -44.36752,64.77647 -84.33206,66.53833 -5.38555,0.23742 -12.2974,0.034 -15.35965,-0.45214 z m 21.10121,-49.42906 c 23.27152,-4.93048 37.5048,-28.45784 31.42629,-51.94712 -3.11823,-12.04981 -11.19091,-21.63397 -22.96956,-27.27025 -5.98208,-2.86252 -7.04177,-3.04564 -17.62546,-3.04564 -10.58369,0 -11.64338,0.18312 -17.62546,3.04564 -11.77865,5.63628 -19.85133,15.22044 -22.96955,27.27025 -6.01462,23.24236 8.12688,46.94587 30.96532,51.90306 8.07441,1.7526 10.7052,1.75877 18.79842,0.0441 z"
     id="path4"
     transform="scale(0.03)" />
</svg>
