<?xml version="1.0" encoding="UTF-8" standalone="no"?>
<!-- Uploaded to: SVG Repo, www.svgrepo.com, Generator: SVG Repo Mixer Tools -->

<svg
   width="800px"
   height="800px"
   viewBox="0 0 24 24"
   fill="none"
   version="1.1"
   id="svg2"
   sodipodi:docname="login-2-svgrepo-com.svg"
   inkscape:version="1.4 (e7c3feb100, 2024-10-09)"
   xmlns:inkscape="http://www.inkscape.org/namespaces/inkscape"
   xmlns:sodipodi="http://sodipodi.sourceforge.net/DTD/sodipodi-0.dtd"
   xmlns="http://www.w3.org/2000/svg"
   xmlns:svg="http://www.w3.org/2000/svg">
  <defs
     id="defs2" />
  <sodipodi:namedview
     id="namedview2"
     pagecolor="#ffffff"
     bordercolor="#000000"
     borderopacity="0.25"
     inkscape:showpageshadow="2"
     inkscape:pageopacity="0.0"
     inkscape:pagecheckerboard="0"
     inkscape:deskcolor="#d1d1d1"
     inkscape:zoom="1.02125"
     inkscape:cx="400"
     inkscape:cy="400.4896"
     inkscape:window-width="1920"
     inkscape:window-height="1021"
     inkscape:window-x="1920"
     inkscape:window-y="0"
     inkscape:window-maximized="1"
     inkscape:current-layer="svg2" />
  <path
     d="M2.00098 11.999L16.001 11.999M16.001 11.999L12.501 8.99902M16.001 11.999L12.501 14.999"
     stroke="#1C274C"
     stroke-width="1.5"
     stroke-linecap="round"
     stroke-linejoin="round"
     id="path1" />
  <path
     d="M9.00195 7C9.01406 4.82497 9.11051 3.64706 9.87889 2.87868C10.7576 2 12.1718 2 15.0002 2L16.0002 2C18.8286 2 20.2429 2 21.1215 2.87868C22.0002 3.75736 22.0002 5.17157 22.0002 8L22.0002 16C22.0002 18.8284 22.0002 20.2426 21.1215 21.1213C20.3531 21.8897 19.1752 21.9862 17 21.9983M9.00195 17C9.01406 19.175 9.11051 20.3529 9.87889 21.1213C10.5202 21.7626 11.4467 21.9359 13 21.9827"
     stroke="#1C274C"
     stroke-width="1.5"
     stroke-linecap="round"
     id="path2" />
  <path
     style="fill:#ffffff;stroke-width:0.979192"
     d="m 410.49056,523.47619 c -11.46833,-3.13735 -19.35613,-14.6865 -17.98181,-26.32861 1.05628,-8.9479 3.01328,-11.04604 39.61297,-42.46988 L 466.69143,424.99677 264.19027,424.73829 61.689106,424.4798 57.27175,422.4351 c -9.358215,-4.33171 -14.619109,-12.43305 -14.655386,-22.56808 -0.04182,-11.68264 7.84671,-21.2532 19.5946,-23.77267 3.477799,-0.74586 64.662016,-1.06375 204.736226,-1.06375 h 199.77614 l -34.58566,-29.69461 c -39.09477,-33.56606 -39.49005,-34.01911 -39.44874,-45.21359 0.0188,-5.08625 0.56781,-7.88192 2.12848,-10.83791 5.18262,-9.81618 16.39905,-15.43913 26.35355,-13.21141 2.84255,0.63613 6.69077,2.1898 8.55161,3.4526 5.99263,4.06671 119.57297,101.90034 122.68572,105.67665 7.05428,8.55806 6.98138,21.3871 -0.16899,29.73777 -5.18396,6.05416 -121.6108,105.37138 -125.56616,107.11346 -5.41142,2.38337 -10.90525,2.86634 -16.18258,1.42263 z"
     id="path3"
     transform="scale(0.03)" />
  <path
     style="fill:#ffffff;stroke-width:0.979192"
     d="m 560.58118,756.97984 c -10.99621,-3.34489 -18.02865,-12.51995 -18.06189,-23.56491 -0.0157,-5.21971 0.49565,-7.2985 2.84239,-11.55508 3.15997,-5.73163 8.9252,-10.54566 14.22522,-11.87821 1.89672,-0.47688 14.24419,-1.14471 27.4388,-1.48407 50.54185,-1.29991 70.78831,-4.33173 87.63476,-13.12295 21.28671,-11.10834 29.65792,-31.28105 32.76509,-78.95644 1.3932,-21.37691 1.3932,-411.45945 0,-432.83636 -4.51228,-69.23499 -19.33872,-85.043314 -85.14893,-90.787967 -20.3895,-1.779824 -191.53595,-1.743375 -211.90771,0.04513 -35.50173,3.116813 -51.96874,8.550707 -64.05498,21.137267 -15.22615,15.85646 -19.84629,37.17632 -21.55956,99.48764 -0.79842,29.03846 -0.84968,29.31641 -6.68614,36.25265 -8.1698,9.70926 -25.28991,10.26988 -34.92657,1.14373 -6.01239,-5.69388 -6.94922,-9.00574 -7.3267,-25.90117 -0.41411,-18.53516 1.1892,-51.25298 3.37041,-68.77795 4.91264,-39.47054 17.78569,-65.913782 41.27746,-84.790245 22.50529,-18.083787 50.89853,-25.806092 104.01697,-28.290208 27.34061,-1.2786 156.89696,-1.273659 184.08813,0.007 61.00077,2.873081 90.3443,12.471718 114.08194,37.317627 19.45029,20.358396 28.52415,44.551516 33.00363,87.995706 1.84083,17.85317 1.84083,445.30473 0,463.1579 -4.40753,42.74635 -13.5479,67.38657 -32.42873,87.41995 -19.1639,20.33374 -43.93002,31.02883 -82.17015,35.48466 -23.14078,2.69642 -74.57083,4.29177 -80.47344,2.49628 z"
     id="path4"
     transform="scale(0.03)" />
  <path
     style="fill:#ffffff;stroke-width:0.979192"
     d="m 404.40636,755.80647 c -46.01178,-3.94654 -75.1322,-15.40643 -95.04187,-37.40224 -16.82849,-18.59178 -25.94966,-41.17592 -30.21701,-74.81776 -2.10465,-16.59206 -3.75803,-50.71883 -3.33535,-68.84362 0.3074,-13.18141 0.62358,-15.63999 2.45001,-19.0513 9.63669,-17.99884 34.35961,-17.52158 44.12313,0.85178 1.34429,2.52974 1.75802,7.76753 2.3691,29.99278 1.71427,62.34774 6.33063,83.62829 21.58818,99.51744 9.26059,9.64394 21.42127,15.03755 41.41755,18.36986 10.34332,1.72368 31.08769,3.53253 40.51209,3.53253 10.36321,0 16.38303,2.22249 22.21381,8.20127 12.157,12.46555 8.51554,31.51563 -7.40154,38.72072 -3.73587,1.69109 -6.26888,1.97739 -16.64627,1.88151 -6.73195,-0.0622 -16.64627,-0.49103 -22.03183,-0.95297 z"
     id="path5"
     transform="scale(0.03)" />
</svg>
