<?xml version="1.0" encoding="UTF-8" standalone="no"?>
<!-- Uploaded to: SVG Repo, www.svgrepo.com, Generator: SVG Repo Mixer Tools -->

<svg
   width="800px"
   height="800px"
   viewBox="0 0 24 24"
   fill="none"
   version="1.1"
   id="svg1"
   sodipodi:docname="user-svgrepo-com.svg"
   inkscape:version="1.4 (e7c3feb100, 2024-10-09)"
   xmlns:inkscape="http://www.inkscape.org/namespaces/inkscape"
   xmlns:sodipodi="http://sodipodi.sourceforge.net/DTD/sodipodi-0.dtd"
   xmlns="http://www.w3.org/2000/svg"
   xmlns:svg="http://www.w3.org/2000/svg">
  <defs
     id="defs1" />
  <sodipodi:namedview
     id="namedview1"
     pagecolor="#ffffff"
     bordercolor="#000000"
     borderopacity="0.25"
     inkscape:showpageshadow="2"
     inkscape:pageopacity="0.0"
     inkscape:pagecheckerboard="0"
     inkscape:deskcolor="#d1d1d1"
     inkscape:zoom="1.02125"
     inkscape:cx="400"
     inkscape:cy="400.4896"
     inkscape:window-width="1920"
     inkscape:window-height="1021"
     inkscape:window-x="1920"
     inkscape:window-y="0"
     inkscape:window-maximized="1"
     inkscape:current-layer="svg1" />
  <circle
     cx="12"
     cy="6"
     r="4"
     stroke="#1C274C"
     stroke-width="1.5"
     id="circle1" />
  <path
     d="M19.9975 18C20 17.8358 20 17.669 20 17.5C20 15.0147 16.4183 13 12 13C7.58172 13 4 15.0147 4 17.5C4 19.9853 4 22 12 22C14.231 22 15.8398 21.8433 17 21.5634"
     stroke="#1C274C"
     stroke-width="1.5"
     stroke-linecap="round"
     id="path1" />
  <path
     style="fill:#ffffff;stroke-width:0.979192"
     d="m 380.90575,356.79802 c -61.44898,-8.86163 -110.34925,-48.65658 -130.13278,-105.9018 -6.21685,-17.98898 -7.93991,-29.26886 -7.88682,-51.63061 0.0393,-16.53976 0.39085,-21.182 2.26192,-29.86537 14.59683,-67.742 67.34948,-116.885823 135.07344,-125.833011 52.27224,-6.90582 106.02255,14.068224 140.11467,54.674495 17.42593,20.755586 28.68647,43.981556 34.49948,71.158516 3.23612,15.12949 3.28316,44.72078 0.0961,60.44334 -11.40377,56.25738 -51.32535,101.75124 -105.14921,119.82603 -16.33888,5.48682 -25.98916,6.98693 -46.84497,7.28194 -10.50184,0.14856 -20.41616,0.0795 -22.03183,-0.15353 z m 46.97824,-51.65124 c 18.74636,-4.94353 38.21416,-16.51083 51.26122,-30.45818 20.43154,-21.84138 30.60389,-49.55591 29.26838,-79.7416 -0.70741,-15.98904 -3.86899,-28.37424 -10.89564,-42.68262 C 461.5705,79.064513 362.20458,69.847037 312.61926,135.11263 c -6.81757,8.97347 -14.93638,26.02519 -17.9571,37.71479 -5.14236,19.89995 -4.11511,43.69424 2.72375,63.09033 3.67924,10.43493 6.5804,16.21298 12.68688,25.26767 15.65609,23.21486 39.6046,39.20255 67.89539,45.326 13.13808,2.8437 36.36536,2.2087 49.91581,-1.36464 z"
     id="path2"
     transform="scale(0.03)" />
  <path
     style="fill:#ffffff;stroke-width:0.979192"
     d="M 347.12362,756.91481 C 202.5951,750.33643 136.3423,721.26614 116.15129,655.56916 c -4.97677,-16.19332 -6.14186,-25.73274 -6.69718,-54.83477 -0.54443,-28.53168 -0.0377,-34.4754 4.1798,-49.0292 9.23171,-31.85667 34.80822,-62.92092 71.62413,-86.99189 49.60754,-32.43438 121.49513,-52.80907 194.91332,-55.24317 64.0151,-2.12235 119.44273,5.8548 172.6378,24.84605 68.93138,24.6093 119.55813,69.08211 133.53103,117.29966 3.73063,12.87358 4.46434,19.02575 4.47249,37.50123 0.007,16.44793 -0.0463,16.88201 -2.71139,21.98359 -7.73606,14.80852 -26.74499,17.73836 -38.53446,5.9393 -6.32255,-6.3277 -7.70636,-11.45732 -7.70636,-28.56656 0,-10.01188 -0.47559,-15.23384 -1.89167,-20.77064 C 628.05368,521.11505 564.14483,480.64332 477.35618,464.72462 449.58999,459.63176 438.35147,458.76609 400,458.76609 c -38.336,0 -49.53622,0.86192 -77.35618,5.95299 -87.75575,16.05936 -152.63709,57.80074 -163.12618,104.94717 -1.37363,6.1742 -1.54171,11.09275 -1.0742,31.43373 0.68287,29.71057 2.90592,41.50058 10.16332,53.90133 16.31738,27.88159 65.15568,44.7352 147.67231,50.96024 76.98324,5.8076 174.13549,2.62161 227.17258,-7.44984 26.24434,-4.98366 24.40712,-4.79969 30.06892,-3.01097 14.76281,4.66399 21.60875,20.49468 14.72912,34.05992 -2.99353,5.90265 -8.92775,11.00274 -14.71261,12.64455 -19.71776,5.59613 -59.42125,10.96663 -101.56646,13.73839 -20.88426,1.37349 -102.12396,2.00547 -124.847,0.97121 z"
     id="path3"
     transform="scale(0.03)" />
</svg>
