<?xml version="1.0" standalone="no"?>
<!DOCTYPE svg PUBLIC "-//W3C//DTD SVG 20010904//EN"
 "http://www.w3.org/TR/2001/REC-SVG-20010904/DTD/svg10.dtd">
<svg version="1.0" xmlns="http://www.w3.org/2000/svg"
 width="253.000000pt" height="137.000000pt" viewBox="0 0 253.000000 137.000000"
 preserveAspectRatio="xMidYMid meet">

<g transform="translate(0.000000,137.000000) scale(0.100000,-0.100000)"
fill="#000000" stroke="none">
<path d="M1168 1213 c7 -3 16 -2 19 1 4 3 -2 6 -13 5 -11 0 -14 -3 -6 -6z"/>
<path d="M1248 1183 c7 -3 16 -2 19 1 4 3 -2 6 -13 5 -11 0 -14 -3 -6 -6z"/>
<path d="M819 1113 l-34 -38 38 34 c34 33 42 41 34 41 -2 0 -19 -17 -38 -37z"/>
<path d="M1510 1136 c0 -2 8 -10 18 -17 15 -13 16 -12 3 4 -13 16 -21 21 -21
13z"/>
<path d="M1570 1112 c0 -8 -5 -10 -12 -6 -7 4 15 -23 50 -60 35 -38 71 -83 80
-102 19 -40 58 -50 47 -11 -11 33 -48 98 -54 92 -3 -3 -29 18 -58 47 -29 29
-53 47 -53 40z"/>
<path d="M868 1044 c-38 -37 -68 -71 -68 -77 0 -7 3 -7 8 -1 5 5 37 39 72 77
35 37 61 67 59 67 -2 0 -34 -30 -71 -66z"/>
<path d="M1458 1093 c6 -2 18 -2 25 0 6 3 1 5 -13 5 -14 0 -19 -2 -12 -5z"/>
<path d="M960 1070 l-25 -20 35 1 c19 1 27 3 17 6 -14 4 -16 8 -6 19 16 19 9
17 -21 -6z"/>
<path d="M1640 1076 c0 -2 8 -10 18 -17 15 -13 16 -12 3 4 -13 16 -21 21 -21
13z"/>
<path d="M584 1063 c10 -11 37 -12 30 -2 -3 5 -12 9 -21 9 -9 0 -13 -3 -9 -7z"/>
<path d="M1536 1057 c3 -10 9 -15 12 -12 3 3 0 11 -7 18 -10 9 -11 8 -5 -6z"/>
<path d="M1873 1055 c-3 -9 -3 -18 -1 -21 3 -3 8 4 11 16 6 23 -1 27 -10 5z"/>
<path d="M1488 1053 c7 -3 16 -2 19 1 4 3 -2 6 -13 5 -11 0 -14 -3 -6 -6z"/>
<path d="M600 1024 c0 -8 5 -12 10 -9 6 4 8 11 5 16 -9 14 -15 11 -15 -7z"/>
<path d="M1255 1029 c-4 -6 -14 -8 -24 -4 -13 5 -14 4 -3 -6 10 -11 15 -10 29
4 10 9 14 17 11 17 -4 0 -10 -5 -13 -11z"/>
<path d="M1324 988 l-19 -23 23 19 c21 18 27 26 19 26 -2 0 -12 -10 -23 -22z"/>
<path d="M1830 970 l0 -40 103 2 102 2 -92 3 -93 4 0 34 c0 19 -4 35 -10 35
-5 0 -10 -18 -10 -40z"/>
<path d="M640 980 c0 -11 5 -20 10 -20 6 0 10 9 10 20 0 11 -4 20 -10 20 -5 0
-10 -9 -10 -20z"/>
<path d="M1201 993 c5 -30 -2 -35 -22 -17 -22 19 -22 19 -10 -3 17 -33 27 -35
39 -8 7 16 8 26 1 30 -5 4 -9 3 -8 -2z"/>
<path d="M859 973 c-13 -16 -12 -17 4 -4 9 7 17 15 17 17 0 8 -8 3 -21 -13z"/>
<path d="M1140 945 c19 -19 36 -35 39 -35 3 0 -10 16 -29 35 -19 19 -36 35
-39 35 -3 0 10 -16 29 -35z"/>
<path d="M157 934 c-21 -21 57 -35 79 -15 5 5 20 11 34 14 14 2 -5 5 -41 6
-36 0 -69 -2 -72 -5z"/>
<path d="M418 933 c17 -2 47 -2 65 0 17 2 3 4 -33 4 -36 0 -50 -2 -32 -4z"/>
<path d="M548 933 c18 -2 45 -2 60 0 15 2 0 4 -33 4 -33 0 -45 -2 -27 -4z"/>
<path d="M1485 929 c-4 -6 -5 -12 -2 -15 2 -3 7 2 10 11 7 17 1 20 -8 4z"/>
<path d="M2108 933 c6 -2 18 -2 25 0 6 3 1 5 -13 5 -14 0 -19 -2 -12 -5z"/>
<path d="M2181 935 c8 -7 78 -9 85 -2 4 4 -14 7 -41 7 -27 0 -46 -2 -44 -5z"/>
<path d="M941 916 c-9 -10 -9 -16 -1 -21 6 -4 14 -4 17 -1 4 3 1 6 -7 6 -10 0
-10 3 0 15 7 8 10 15 7 15 -2 0 -10 -6 -16 -14z"/>
<path d="M1444 912 c3 -5 0 -13 -6 -15 -9 -4 -10 -6 -1 -6 17 -1 25 16 12 25
-7 4 -9 3 -5 -4z"/>
<path d="M623 883 c26 -2 68 -2 95 0 26 2 4 3 -48 3 -52 0 -74 -1 -47 -3z"/>
<path d="M1061 874 c0 -11 3 -14 6 -6 3 7 2 16 -1 19 -3 4 -6 -2 -5 -13z"/>
<path d="M1787 883 c18 -2 50 -2 70 0 21 2 7 4 -32 4 -38 0 -55 -2 -38 -4z"/>
<path d="M2160 860 c0 -13 200 -13 220 0 10 7 -23 10 -102 10 -72 0 -118 -4
-118 -10z"/>
<path d="M2490 866 c0 -2 7 -6 15 -10 8 -3 15 -1 15 4 0 6 -7 10 -15 10 -8 0
-15 -2 -15 -4z"/>
<path d="M1241 805 c-7 -25 -11 -59 -7 -76 4 -20 2 -28 -5 -23 -23 14 32 -75
62 -100 47 -40 128 -79 148 -70 12 5 8 10 -19 21 -19 8 -58 39 -87 68 -57 58
-77 109 -71 182 4 56 -4 55 -21 -2z"/>
<path d="M1173 790 c0 -30 2 -43 4 -27 2 15 2 39 0 55 -2 15 -4 2 -4 -28z"/>
<path d="M528 823 c39 -2 105 -2 145 0 39 1 7 3 -73 3 -80 0 -112 -2 -72 -3z"/>
<path d="M1822 823 c37 -2 100 -2 140 0 40 1 10 3 -67 3 -77 0 -110 -1 -73 -3z"/>
<path d="M786 802 c-4 -7 -12 -10 -17 -7 -5 4 -9 -1 -9 -9 0 -13 -15 -16 -91
-16 -54 0 -88 -4 -84 -10 3 -5 -21 -11 -57 -13 -39 -2 -20 -4 50 -5 83 -1 111
1 106 9 -5 9 6 10 39 7 31 -4 44 -2 40 5 -4 6 0 8 11 4 18 -7 31 13 24 35 -3
9 -6 9 -12 0z"/>
<path d="M2412 803 c-23 -2 -40 -8 -37 -14 7 -10 75 -12 99 -3 18 7 12 25 -7
22 -7 -1 -31 -3 -55 -5z"/>
<path d="M30 790 c36 -12 78 -12 85 0 4 6 -16 10 -52 9 -44 -1 -52 -3 -33 -9z"/>
<path d="M230 790 c0 -5 16 -10 35 -10 19 0 35 5 35 10 0 6 -16 10 -35 10 -19
0 -35 -4 -35 -10z"/>
<path d="M1725 790 c-3 -6 1 -13 10 -16 19 -8 30 0 20 15 -8 14 -22 14 -30 1z"/>
<path d="M2180 791 c0 -4 11 -6 25 -3 14 2 25 6 25 8 0 2 -11 4 -25 4 -14 0
-25 -4 -25 -9z"/>
<path d="M2285 790 c3 -5 13 -10 21 -10 8 0 14 5 14 10 0 6 -9 10 -21 10 -11
0 -17 -4 -14 -10z"/>
<path d="M2067 770 c-3 -11 -3 -20 -1 -20 2 0 8 9 14 20 6 11 7 20 2 20 -6 0
-12 -9 -15 -20z"/>
<path d="M1834 755 c18 -10 53 -14 100 -13 l71 1 -55 7 -55 6 50 5 c37 4 25 6
-45 7 -90 2 -93 1 -66 -13z"/>
<path d="M809 743 c-13 -16 -12 -17 4 -4 9 7 17 15 17 17 0 8 -8 3 -21 -13z"/>
<path d="M1080 756 c0 -2 8 -10 18 -17 15 -13 16 -12 3 4 -13 16 -21 21 -21
13z"/>
<path d="M360 746 c0 -2 8 -10 18 -17 15 -13 16 -12 3 4 -13 16 -21 21 -21 13z"/>
<path d="M438 743 c7 -3 16 -2 19 1 4 3 -2 6 -13 5 -11 0 -14 -3 -6 -6z"/>
<path d="M108 703 c7 -3 16 -2 19 1 4 3 -2 6 -13 5 -11 0 -14 -3 -6 -6z"/>
<path d="M220 700 c0 -5 20 -10 45 -10 25 0 45 5 45 10 0 6 -20 10 -45 10 -25
0 -45 -4 -45 -10z"/>
<path d="M2135 700 c-4 -6 28 -10 89 -10 57 0 96 4 96 10 0 6 -36 10 -89 10
-50 0 -93 -4 -96 -10z"/>
<path d="M748 683 c6 -2 18 -2 25 0 6 3 1 5 -13 5 -14 0 -19 -2 -12 -5z"/>
<path d="M1689 673 c-13 -16 -12 -17 4 -4 16 13 21 21 13 21 -2 0 -10 -8 -17
-17z"/>
<path d="M1728 683 c7 -3 16 -2 19 1 4 3 -2 6 -13 5 -11 0 -14 -3 -6 -6z"/>
<path d="M750 665 c0 -37 103 -161 185 -223 46 -35 164 -88 223 -101 49 -10
158 -14 120 -4 -10 2 -18 8 -18 12 0 5 -31 11 -69 13 -75 6 -185 53 -238 103
-15 14 -31 25 -35 25 -4 0 -13 10 -19 23 -12 21 -11 21 7 7 10 -8 -6 12 -37
45 -31 33 -61 70 -68 83 -10 19 -51 32 -51 17z"/>
<path d="M1003 663 c9 -2 23 -2 30 0 6 3 -1 5 -18 5 -16 0 -22 -2 -12 -5z"/>
<path d="M1194 662 c9 -15 -47 -77 -84 -92 -16 -7 -27 -16 -24 -21 6 -11 76
26 100 52 19 21 26 57 12 65 -6 4 -8 2 -4 -4z"/>
<path d="M1692 627 c-12 -24 -37 -59 -55 -79 -46 -52 -157 -133 -211 -153 -31
-12 -43 -21 -35 -26 26 -15 152 59 235 137 40 39 95 114 107 147 13 36 -19 16
-41 -26z"/>
<path d="M480 651 c19 -5 40 -10 47 -12 6 -2 13 1 15 6 1 6 -19 11 -47 12 -45
1 -47 1 -15 -6z"/>
<path d="M652 635 c0 -16 2 -22 5 -12 2 9 2 23 0 30 -3 6 -5 -1 -5 -18z"/>
<path d="M1154 638 l-19 -23 23 19 c21 18 27 26 19 26 -2 0 -12 -10 -23 -22z"/>
<path d="M1957 654 c-10 -11 3 -24 23 -24 10 0 20 7 24 15 4 11 -1 15 -18 15
-12 0 -26 -3 -29 -6z"/>
<path d="M50 640 c0 -11 80 -11 125 0 22 6 9 8 -47 9 -46 1 -78 -3 -78 -9z"/>
<path d="M1619 633 c-13 -16 -12 -17 4 -4 16 13 21 21 13 21 -2 0 -10 -8 -17
-17z"/>
<path d="M2380 646 c0 -2 7 -6 15 -10 8 -3 15 -1 15 4 0 6 -7 10 -15 10 -8 0
-15 -2 -15 -4z"/>
<path d="M1849 613 c-2 -16 -2 -84 2 -153 l5 -125 2 153 c2 144 -1 185 -9 125z"/>
<path d="M1629 593 c-13 -16 -12 -17 4 -4 16 13 21 21 13 21 -2 0 -10 -8 -17
-17z"/>
<path d="M958 593 c7 -3 16 -2 19 1 4 3 -2 6 -13 5 -11 0 -14 -3 -6 -6z"/>
<path d="M998 593 c7 -3 16 -2 19 1 4 3 -2 6 -13 5 -11 0 -14 -3 -6 -6z"/>
<path d="M1483 593 c9 -2 25 -2 35 0 9 3 1 5 -18 5 -19 0 -27 -2 -17 -5z"/>
<path d="M165 580 c-4 -6 10 -10 35 -10 25 0 39 4 35 10 -3 6 -19 10 -35 10
-16 0 -32 -4 -35 -10z"/>
<path d="M330 580 c0 -13 50 -13 70 0 11 7 4 10 -27 10 -24 0 -43 -4 -43 -10z"/>
<path d="M480 580 c0 -5 11 -10 25 -10 14 0 25 5 25 10 0 6 -11 10 -25 10 -14
0 -25 -4 -25 -10z"/>
<path d="M1209 573 c-13 -16 -12 -17 4 -4 16 13 21 21 13 21 -2 0 -10 -8 -17
-17z"/>
<path d="M1911 574 c0 -11 3 -14 6 -6 3 7 2 16 -1 19 -3 4 -6 -2 -5 -13z"/>
<path d="M1980 581 c0 -5 38 -10 85 -10 49 0 85 3 85 9 0 6 -36 10 -85 10 -47
0 -85 -4 -85 -9z"/>
<path d="M2200 580 c0 -5 11 -10 25 -10 14 0 25 5 25 10 0 6 -11 10 -25 10
-14 0 -25 -4 -25 -10z"/>
<path d="M953 563 c9 -2 25 -2 35 0 9 3 1 5 -18 5 -19 0 -27 -2 -17 -5z"/>
<path d="M1483 563 c15 -2 39 -2 55 0 15 2 2 4 -28 4 -30 0 -43 -2 -27 -4z"/>
<path d="M1000 534 l-35 -13 38 0 c20 -1 37 4 37 10 0 6 9 8 21 4 15 -5 19 -4
15 4 -9 14 -31 12 -76 -5z"/>
<path d="M255 520 c-8 -12 161 -12 190 0 13 6 -16 9 -82 9 -58 1 -104 -3 -108
-9z"/>
<path d="M1478 523 c6 -2 18 -2 25 0 6 3 1 5 -13 5 -14 0 -19 -2 -12 -5z"/>
<path d="M1966 522 c-3 -5 55 -10 129 -11 90 -2 135 1 135 8 0 13 -256 15
-264 3z"/>
<path d="M1832 495 c0 -16 2 -22 5 -12 2 9 2 23 0 30 -3 6 -5 -1 -5 -18z"/>
<path d="M815 490 c10 -11 20 -20 23 -20 3 0 -3 9 -13 20 -10 11 -20 20 -23
20 -3 0 3 -9 13 -20z"/>
<path d="M1719 408 c4 -28 6 -29 9 -9 2 13 0 27 -5 32 -6 6 -7 -3 -4 -23z"/>
<path d="M858 352 c6 -75 12 -80 12 -9 0 31 -4 58 -8 61 -5 3 -6 -21 -4 -52z"/>
<path d="M1833 365 c0 -22 2 -30 4 -17 2 12 2 30 0 40 -3 9 -5 -1 -4 -23z"/>
<path d="M1178 383 c6 -2 18 -2 25 0 6 3 1 5 -13 5 -14 0 -19 -2 -12 -5z"/>
<path d="M1896 377 c3 -10 9 -15 12 -12 3 3 0 11 -7 18 -10 9 -11 8 -5 -6z"/>
<path d="M581 333 c2 -85 17 -106 18 -25 1 42 -3 72 -9 72 -5 0 -10 -21 -9
-47z"/>
<path d="M1630 369 c0 -5 5 -7 10 -4 6 3 10 8 10 11 0 2 -4 4 -10 4 -5 0 -10
-5 -10 -11z"/>
<path d="M842 304 c-1 -38 -6 -75 -12 -82 -5 -7 -3 -6 6 1 11 11 14 30 11 83
l-3 69 -2 -71z"/>
<path d="M782 340 c0 -14 2 -19 5 -12 2 6 2 18 0 25 -3 6 -5 1 -5 -13z"/>
<path d="M925 339 c-4 -6 -5 -12 -2 -15 2 -3 7 2 10 11 7 17 1 20 -8 4z"/>
<path d="M1328 343 c7 -3 16 -2 19 1 4 3 -2 6 -13 5 -11 0 -14 -3 -6 -6z"/>
<path d="M1723 285 c0 -27 2 -38 4 -22 2 15 2 37 0 50 -2 12 -4 0 -4 -28z"/>
<path d="M970 273 c0 -72 12 -153 22 -153 14 0 5 193 -9 198 -9 2 -13 -10 -13
-45z m17 0 c-3 -10 -5 -4 -5 12 0 17 2 24 5 18 2 -7 2 -21 0 -30z"/>
<path d="M1703 255 c0 -38 2 -53 4 -32 2 20 2 52 0 70 -2 17 -4 1 -4 -38z"/>
<path d="M1494 227 c2 -49 7 -91 10 -94 10 -10 6 151 -4 167 -7 10 -8 -14 -6
-73z"/>
<path d="M1030 221 c0 -44 5 -83 10 -86 6 -4 10 23 10 74 0 44 -4 83 -10 86
-6 4 -10 -23 -10 -74z"/>
<path d="M1223 293 c9 -2 23 -2 30 0 6 3 -1 5 -18 5 -16 0 -22 -2 -12 -5z"/>
<path d="M1233 185 c0 -38 2 -53 4 -32 2 20 2 52 0 70 -2 17 -4 1 -4 -38z"/>
<path d="M1450 190 c0 -33 4 -60 10 -60 6 0 10 27 10 60 0 33 -4 60 -10 60 -6
0 -10 -27 -10 -60z"/>
<path d="M922 210 c0 -14 2 -19 5 -12 2 6 2 18 0 25 -3 6 -5 1 -5 -13z"/>
<path d="M1340 203 c0 -15 -2 -16 -10 -3 -15 24 -12 -5 5 -36 l15 -29 0 43 c0
23 -2 42 -5 42 -3 0 -5 -8 -5 -17z"/>
<path d="M1391 158 c0 -37 4 -70 9 -73 6 -4 8 -11 5 -16 -4 -5 1 -9 11 -9 14
0 14 3 3 16 -7 8 -16 45 -19 82 l-7 67 -2 -67z"/>
<path d="M1726 207 c3 -10 9 -15 12 -12 3 3 0 11 -7 18 -10 9 -11 8 -5 -6z"/>
<path d="M1253 160 c0 -30 2 -43 4 -28 2 16 2 40 0 56 -2 15 -4 2 -4 -28z"/>
<path d="M1346 117 c3 -10 9 -15 12 -12 3 3 0 11 -7 18 -10 9 -11 8 -5 -6z"/>
<path d="M671 94 c0 -11 3 -14 6 -6 3 7 2 16 -1 19 -3 4 -6 -2 -5 -13z"/>
<path d="M1087 94 c-4 -4 -7 -14 -7 -23 0 -11 3 -12 11 -4 6 6 10 16 7 23 -2
6 -7 8 -11 4z"/>
<path d="M1090 30 c-9 -6 -10 -10 -3 -10 6 0 15 5 18 10 8 12 4 12 -15 0z"/>
</g>
</svg>
