<?xml version="1.0" standalone="no"?>
<!DOCTYPE svg PUBLIC "-//W3C//DTD SVG 20010904//EN"
 "http://www.w3.org/TR/2001/REC-SVG-20010904/DTD/svg10.dtd">
<svg version="1.0" xmlns="http://www.w3.org/2000/svg"
 width="253.000000pt" height="137.000000pt" viewBox="0 0 253.000000 137.000000"
 preserveAspectRatio="xMidYMid meet">

<g transform="translate(0.000000,137.000000) scale(0.100000,-0.100000)"
fill="#000000" stroke="none">
<path d="M1113 1281 c-190 -52 -361 -197 -407 -348 -6 -19 -4 -23 16 -23 17 0
24 6 25 21 5 62 126 201 225 257 201 115 397 103 588 -34 46 -33 120 -113 120
-130 0 -5 -24 16 -54 45 -29 29 -55 48 -57 42 -2 -6 -28 6 -59 28 -152 108
-368 109 -524 3 -130 -88 -235 -221 -189 -239 11 -4 22 2 32 18 36 56 75 86
123 93 68 10 122 -8 178 -60 l48 -45 -3 -103 c-4 -122 -13 -141 -85 -180 -91
-49 -209 -31 -255 40 -19 29 -22 30 -75 26 -30 -3 -57 -6 -59 -8 -2 -2 11 -33
29 -70 77 -152 266 -285 443 -314 211 -33 484 116 587 324 l31 61 -63 5 c-35
3 -65 2 -66 -2 -12 -28 -58 -68 -88 -78 -57 -19 -145 -8 -193 23 -65 43 -81
78 -81 173 0 73 3 85 29 120 53 75 126 103 217 84 50 -11 58 -16 87 -61 25
-38 37 -48 52 -44 11 2 37 5 58 5 20 0 37 5 37 11 0 28 -61 129 -108 181 -146
157 -372 229 -559 179z m248 -117 c97 -29 100 -34 36 -54 -31 -10 -79 -34
-107 -55 l-51 -38 -27 26 c-32 30 -95 62 -141 72 -28 6 -31 9 -20 21 40 39
216 56 310 28z m-225 -109 c48 -28 75 -60 67 -81 -4 -11 -14 -7 -42 15 -48 38
-95 61 -123 61 -13 0 -33 3 -46 6 -19 5 -20 9 -10 21 18 22 99 10 154 -22z
m382 17 c23 -18 23 -18 -31 -19 -75 -2 -141 -35 -182 -92 -38 -52 -68 -144
-69 -213 -1 -32 -4 -44 -11 -37 -5 6 -10 51 -10 102 0 75 4 99 22 132 60 112
212 180 281 127z m-328 -432 c-13 -24 -65 -67 -90 -75 -11 -4 -18 -10 -16 -14
3 -4 -9 -8 -27 -8 -18 -1 -45 -4 -62 -7 -21 -5 -37 -1 -52 11 -22 18 -22 18
37 19 67 1 158 40 188 79 20 26 37 23 22 -5z m520 22 c0 -12 -57 -100 -83
-127 -42 -44 -155 -122 -201 -140 -29 -11 -42 -21 -35 -25 7 -5 -11 -13 -40
-19 -62 -13 -91 -14 -91 -2 0 4 -31 11 -69 13 -75 6 -185 53 -238 103 -15 14
-31 25 -35 25 -4 0 -13 10 -19 23 -10 19 -10 20 2 11 8 -6 38 -29 66 -52 134
-103 315 -119 472 -41 66 33 181 135 225 198 27 38 46 52 46 33z m-430 -97
c20 -24 87 -57 145 -71 l50 -12 -58 -27 c-91 -42 -167 -52 -257 -31 -41 9 -91
26 -110 38 l-35 22 42 7 c52 10 110 39 148 76 31 30 49 30 75 -2z m229 -5 c42
0 43 -1 25 -15 -21 -16 -99 -21 -89 -6 3 5 -10 14 -29 21 -19 6 -39 17 -45 24
-7 9 6 7 42 -5 28 -10 72 -18 96 -19z"/>
<path d="M570 1055 c-11 -13 -11 -19 3 -32 21 -21 49 -9 45 19 -4 28 -30 35
-48 13z"/>
<path d="M1875 1060 c-9 -15 4 -50 19 -50 20 0 37 25 30 44 -7 18 -39 22 -49
6z"/>
<path d="M1830 970 l0 -40 103 2 102 2 -92 3 -93 4 0 34 c0 19 -4 35 -10 35
-5 0 -10 -18 -10 -40z"/>
<path d="M640 980 c0 -11 5 -20 10 -20 6 0 10 9 10 20 0 11 -4 20 -10 20 -5 0
-10 -9 -10 -20z"/>
<path d="M157 934 c-21 -21 57 -35 79 -15 5 5 20 11 34 14 14 2 -5 5 -41 6
-36 0 -69 -2 -72 -5z"/>
<path d="M418 933 c17 -2 47 -2 65 0 17 2 3 4 -33 4 -36 0 -50 -2 -32 -4z"/>
<path d="M548 933 c18 -2 45 -2 60 0 15 2 0 4 -33 4 -33 0 -45 -2 -27 -4z"/>
<path d="M952 924 c-29 -20 -30 -76 -2 -104 60 -60 153 26 100 93 -25 31 -63
36 -98 11z m32 -9 c-10 -8 -23 -14 -29 -14 -5 0 -1 6 9 14 11 8 24 15 30 15 5
0 1 -7 -10 -15z"/>
<path d="M1431 914 c-41 -52 -11 -114 55 -114 38 0 64 29 64 70 0 38 -20 60
-61 66 -31 5 -39 2 -58 -22z m49 7 c0 -5 -10 -11 -22 -14 -22 -6 -22 -6 -4 8
23 17 26 18 26 6z"/>
<path d="M2108 933 c6 -2 18 -2 25 0 6 3 1 5 -13 5 -14 0 -19 -2 -12 -5z"/>
<path d="M2181 935 c8 -7 78 -9 85 -2 4 4 -14 7 -41 7 -27 0 -46 -2 -44 -5z"/>
<path d="M494 883 c-82 -3 -93 -6 -115 -29 -33 -35 -33 -99 0 -125 21 -17 41
-19 205 -19 162 0 184 2 213 20 59 35 52 114 -12 144 -33 16 -61 17 -291 9z
m287 -42 c20 -16 21 -21 11 -34 -12 -14 -15 -14 -33 4 -17 17 -34 19 -155 19
-74 0 -144 -5 -155 -10 -23 -13 -25 -33 -4 -50 12 -10 16 -9 21 4 5 14 26 16
143 16 91 -1 141 -5 152 -13 13 -10 -4 -11 -84 -9 -65 3 -97 0 -93 -6 9 -14
-119 -20 -158 -7 -25 8 -32 16 -34 42 -5 56 18 63 204 63 144 0 164 -2 185
-19z m-43 -88 c-10 -2 -28 -2 -40 0 -13 2 -5 4 17 4 22 1 32 -1 23 -4z"/>
<path d="M1726 880 c-44 -8 -75 -42 -76 -82 0 -78 27 -88 248 -88 165 0 180 1
200 20 12 11 25 32 28 45 7 30 -12 82 -35 94 -22 12 -318 21 -365 11z m339
-45 c26 -25 32 -45 15 -45 -5 0 -10 -7 -10 -15 0 -25 -33 -33 -105 -27 l-70 7
50 6 c39 4 29 6 -45 7 -61 0 -88 -2 -75 -8 14 -6 2 -9 -42 -9 -50 -1 -67 3
-83 19 -25 25 -25 42 -2 62 28 25 40 26 195 27 144 1 149 0 172 -24z"/>
<path d="M1743 820 c-13 -5 -23 -16 -23 -25 0 -19 32 -33 38 -17 5 17 259 17
264 0 6 -17 28 0 28 22 0 10 -7 21 -16 24 -24 9 -266 6 -291 -4z"/>
<path d="M2160 860 c0 -13 200 -13 220 0 10 7 -23 10 -102 10 -72 0 -118 -4
-118 -10z"/>
<path d="M2490 866 c0 -2 7 -6 15 -10 8 -3 15 -1 15 4 0 6 -7 10 -15 10 -8 0
-15 -2 -15 -4z"/>
<path d="M2412 803 c-23 -2 -40 -8 -37 -14 7 -10 75 -12 99 -3 18 7 12 25 -7
22 -7 -1 -31 -3 -55 -5z"/>
<path d="M30 790 c36 -12 78 -12 85 0 4 6 -16 10 -52 9 -44 -1 -52 -3 -33 -9z"/>
<path d="M170 790 c0 -5 5 -10 10 -10 6 0 10 5 10 10 0 6 -4 10 -10 10 -5 0
-10 -4 -10 -10z"/>
<path d="M230 790 c0 -5 16 -10 35 -10 19 0 35 5 35 10 0 6 -16 10 -35 10 -19
0 -35 -4 -35 -10z"/>
<path d="M2180 791 c0 -4 11 -6 25 -3 14 2 25 6 25 8 0 2 -11 4 -25 4 -14 0
-25 -4 -25 -9z"/>
<path d="M2285 790 c3 -5 13 -10 21 -10 8 0 14 5 14 10 0 6 -9 10 -21 10 -11
0 -17 -4 -14 -10z"/>
<path d="M909 741 c-16 -16 -29 -36 -29 -44 0 -37 145 -48 213 -16 33 15 34
33 2 64 -21 22 -33 25 -90 25 -60 0 -69 -3 -96 -29z"/>
<path d="M1380 738 l-32 -31 39 -24 c45 -27 143 -32 199 -8 30 12 34 17 25 34
-24 44 -60 61 -132 61 -62 0 -70 -2 -99 -32z"/>
<path d="M108 703 c7 -3 16 -2 19 1 4 3 -2 6 -13 5 -11 0 -14 -3 -6 -6z"/>
<path d="M220 700 c0 -5 20 -10 45 -10 25 0 45 5 45 10 0 6 -20 10 -45 10 -25
0 -45 -4 -45 -10z"/>
<path d="M2135 700 c-4 -6 28 -10 89 -10 57 0 96 4 96 10 0 6 -36 10 -89 10
-50 0 -93 -4 -96 -10z"/>
<path d="M580 560 c0 -83 -4 -117 -15 -134 -14 -21 -14 -25 0 -39 21 -21 21
-139 0 -157 -11 -9 -12 -17 -4 -31 12 -23 32 -24 49 -4 10 12 10 18 0 30 -8
10 -11 45 -10 107 5 175 0 338 -10 338 -6 0 -10 -43 -10 -110z"/>
<path d="M638 483 c-3 -177 1 -220 20 -198 10 13 3 385 -8 385 -5 0 -10 -84
-12 -187z"/>
<path d="M1830 503 c0 -93 -3 -178 -6 -190 -4 -16 -1 -25 11 -29 22 -9 39 10
31 33 -4 10 -7 82 -6 159 1 143 -5 194 -21 194 -5 0 -9 -75 -9 -167z"/>
<path d="M1900 552 c0 -72 -4 -122 -11 -129 -8 -8 -8 -17 0 -31 15 -28 14
-138 -1 -162 -10 -16 -10 -23 3 -35 9 -9 23 -13 32 -9 19 7 23 39 7 49 -12 8
-13 145 -1 145 17 0 21 33 6 50 -11 13 -15 42 -15 128 0 68 -4 112 -10 112 -6
0 -10 -46 -10 -118z"/>
<path d="M480 651 c19 -5 40 -10 47 -12 6 -2 13 1 15 6 1 6 -19 11 -47 12 -45
1 -47 1 -15 -6z"/>
<path d="M1957 654 c-10 -11 3 -24 23 -24 10 0 20 7 24 15 4 11 -1 15 -18 15
-12 0 -26 -3 -29 -6z"/>
<path d="M50 640 c0 -11 80 -11 125 0 22 6 9 8 -47 9 -46 1 -78 -3 -78 -9z"/>
<path d="M2380 646 c0 -2 7 -6 15 -10 8 -3 15 -1 15 4 0 6 -7 10 -15 10 -8 0
-15 -2 -15 -4z"/>
<path d="M165 580 c-4 -6 10 -10 35 -10 25 0 39 4 35 10 -3 6 -19 10 -35 10
-16 0 -32 -4 -35 -10z"/>
<path d="M330 580 c0 -13 50 -13 70 0 11 7 4 10 -27 10 -24 0 -43 -4 -43 -10z"/>
<path d="M480 580 c0 -5 11 -10 25 -10 14 0 25 5 25 10 0 6 -11 10 -25 10 -14
0 -25 -4 -25 -10z"/>
<path d="M1980 581 c0 -5 38 -10 85 -10 49 0 85 3 85 9 0 6 -36 10 -85 10 -47
0 -85 -4 -85 -9z"/>
<path d="M2200 580 c0 -5 11 -10 25 -10 14 0 25 5 25 10 0 6 -11 10 -25 10
-14 0 -25 -4 -25 -10z"/>
<path d="M1778 567 c-5 -10 -8 -111 -8 -223 0 -166 -3 -209 -15 -228 -17 -25
-12 -51 11 -60 36 -14 71 37 40 59 -13 10 -16 44 -18 241 -2 126 -6 221 -10
211z"/>
<path d="M700 349 c0 -180 -2 -215 -16 -230 -31 -34 6 -80 47 -59 23 13 25 43
4 60 -12 10 -15 48 -15 221 0 128 -4 210 -10 214 -7 4 -10 -67 -10 -206z"/>
<path d="M255 520 c-8 -12 161 -12 190 0 13 6 -16 9 -82 9 -58 1 -104 -3 -108
-9z"/>
<path d="M1966 522 c-3 -5 55 -10 129 -11 90 -2 135 1 135 8 0 13 -256 15
-264 3z"/>
<path d="M1706 475 c-3 -9 -6 -77 -6 -151 0 -127 1 -134 20 -134 20 0 26 11
14 23 -4 3 -7 65 -9 137 -2 128 -6 157 -19 125z"/>
<path d="M770 354 c0 -77 -4 -134 -10 -140 -8 -8 -6 -15 4 -23 10 -9 16 -9 21
-1 11 17 5 274 -6 285 -5 5 -9 -39 -9 -121z"/>
<path d="M1638 414 c-5 -4 -8 -45 -8 -91 0 -49 -5 -91 -12 -103 -10 -15 -10
-25 -2 -38 25 -39 68 -2 46 40 -6 13 -13 63 -14 111 -2 49 -6 85 -10 81z"/>
<path d="M840 326 c0 -48 -5 -95 -12 -105 -16 -26 -3 -51 26 -51 29 0 40 24
23 53 -7 13 -12 56 -12 101 0 54 -4 80 -12 83 -10 4 -13 -17 -13 -81z"/>
<path d="M1558 355 c-9 -14 -14 -273 -5 -281 10 -11 38 17 29 30 -4 6 -9 67
-12 136 -3 69 -8 120 -12 115z"/>
<path d="M920 231 c0 -73 -4 -122 -10 -126 -13 -8 6 -35 25 -35 16 0 27 27 15
35 -6 4 -10 60 -10 126 0 73 -4 119 -10 119 -6 0 -10 -46 -10 -119z"/>
<path d="M970 273 c0 -72 12 -153 22 -153 14 0 5 193 -9 198 -9 2 -13 -10 -13
-45z"/>
<path d="M1496 311 c-7 -11 0 -170 8 -178 3 -4 6 37 6 90 0 93 -2 107 -14 88z"/>
<path d="M1030 221 c0 -44 5 -83 10 -86 6 -4 10 23 10 74 0 44 -4 83 -10 86
-6 4 -10 -23 -10 -74z"/>
<path d="M1080 173 c0 -67 -4 -114 -10 -118 -8 -5 -7 -11 1 -21 27 -33 34 -8
30 112 -4 154 -21 176 -21 27z"/>
<path d="M1391 160 c2 -118 9 -144 32 -121 9 9 8 16 -1 31 -7 12 -12 57 -12
115 0 59 -4 95 -10 95 -7 0 -10 -42 -9 -120z"/>
<path d="M1150 193 c0 -38 -3 -79 -7 -92 -5 -19 -2 -22 13 -19 10 2 19 9 18
16 -1 6 -2 46 -2 87 -2 94 -22 101 -22 8z"/>
<path d="M1320 196 c0 -35 -3 -71 -6 -80 -4 -10 0 -18 11 -22 21 -8 40 10 29
28 -5 7 -7 22 -5 32 5 30 -9 106 -20 106 -5 0 -9 -29 -9 -64z"/>
<path d="M1232 170 c4 -62 2 -80 -9 -85 -19 -7 -13 -45 9 -58 12 -8 21 -7 32
2 19 16 21 50 3 56 -9 4 -11 27 -9 85 4 71 2 80 -13 80 -16 0 -17 -9 -13 -80z"/>
<path d="M1450 190 c0 -33 4 -60 10 -60 6 0 10 27 10 60 0 33 -4 60 -10 60 -6
0 -10 -27 -10 -60z"/>
</g>
</svg>
